<?xml version="1.0" standalone="no"?>
<!DOCTYPE svg PUBLIC "-//W3C//DTD SVG 20010904//EN"
 "http://www.w3.org/TR/2001/REC-SVG-20010904/DTD/svg10.dtd">
<svg version="1.0" xmlns="http://www.w3.org/2000/svg"
 width="225.000000pt" height="225.000000pt" viewBox="0 0 225.000000 225.000000"
 preserveAspectRatio="xMidYMid meet">
<metadata>
Created by potrace 1.14, written by Peter Selinger 2001-2017
</metadata>
<g transform="translate(0.000000,225.000000) scale(0.100000,-0.100000)"
fill="#000000" stroke="none">
<path d="M705 1958 c-48 -17 -94 -56 -117 -101 -19 -35 -23 -62 -26 -167 l-3
-125 105 -105 106 -105 0 191 c0 134 4 194 12 202 17 17 809 17 826 0 8 -8 12
-48 12 -112 1 -185 41 -225 226 -226 73 0 105 -4 113 -14 8 -9 10 -156 9 -527
l-3 -514 -584 -3 c-423 -1 -588 1 -597 9 -11 9 -14 43 -14 133 l0 121 -105
105 -105 105 0 -249 c0 -168 4 -262 12 -290 16 -53 84 -121 134 -135 26 -7
253 -11 674 -11 597 0 637 2 675 19 49 23 89 64 109 113 23 54 24 1194 2 1236
-8 15 -112 124 -230 242 l-216 215 -493 2 c-326 1 -502 -2 -522 -9z"/>
<path d="M150 1672 c-67 -33 -96 -108 -69 -179 5 -15 36 -54 67 -86 l57 -57
97 97 c54 54 98 101 98 104 0 15 -107 112 -137 125 -43 19 -71 18 -113 -4z"/>
<path d="M942 1533 c-32 -27 -37 -64 -12 -96 l21 -27 242 0 c133 0 247 4 253
8 21 13 34 52 28 77 -13 52 -29 55 -280 55 -206 0 -234 -2 -252 -17z"/>
<path d="M370 1385 l-100 -100 308 -307 c270 -269 316 -311 382 -346 103 -55
289 -137 296 -130 6 6 -69 176 -128 290 -35 69 -69 106 -348 385 l-309 309
-101 -101z m680 -597 c34 -61 36 -75 14 -99 -16 -17 -19 -17 -68 8 -83 42 -83
40 -29 95 26 26 48 48 50 48 1 0 16 -24 33 -52z"/>
<path d="M960 1190 c-12 -8 -3 -21 50 -75 l65 -66 358 3 359 3 19 24 c24 30
24 62 0 92 l-19 24 -409 3 c-251 1 -414 -2 -423 -8z"/>
<path d="M1200 912 c0 -1 16 -34 35 -72 l35 -70 256 0 255 0 24 25 c14 13 25
36 25 50 0 29 -31 65 -57 66 -72 2 -573 3 -573 1z"/>
<path d="M1340 626 c0 -2 9 -25 20 -51 11 -26 20 -55 20 -66 0 -18 10 -19 200
-19 200 0 201 0 225 25 30 29 32 64 5 93 -20 21 -27 22 -245 22 -124 0 -225
-2 -225 -4z"/>
</g>
</svg>
